<?xml version="1.0" encoding="utf-8"?>
<!-- Generator: Adobe Illustrator 18.1.1, SVG Export Plug-In . SVG Version: 6.00 Build 0)  -->
<svg version="1.1" id="Layer_1" xmlns="http://www.w3.org/2000/svg" xmlns:xlink="http://www.w3.org/1999/xlink" x="0px" y="0px"
	 viewBox="0 0 250 250" enable-background="new 0 0 250 250" xml:space="preserve">
<g>
	<path fill="#FFFFFF" d="M250,156.1c0.6,22.6-11.9,44.7-36.3,60.3c-20.9,13.3-44.1,21.3-67.9,26.8c-14.8,3.5-30.1,6.2-45.3,6.7
		c-29.1,1-51.7-11.8-67.1-36.7C19,190.2,11.2,164.7,4.9,138.5c-3.8-16.1-6.1-32.3-4.4-49C3,66,14.8,48.4,34,35.3
		C53,22.5,74.4,15.2,96.2,8.9c16.7-4.8,33.6-8.5,51-8.9c25.2-0.6,46.8,7.4,62.8,27.7c12.3,15.5,19.8,33.4,26,52
		C243.5,102.4,249.8,125.3,250,156.1z M152.7,70.5c-1.4-4.1-2.6-7.5-3.8-11c-0.8-2.4-1.5-4.8-2.5-7c-2.7-6-9.7-8.9-15.9-6.8
		c-6.4,2.2-10.2,9.1-8.3,15.6c1.7,5.8,3.7,11.5,5.7,17.6c-11.4,3.8-22.2,7.4-33.2,11.1c-2.1-6-3.7-11.4-5.7-16.7
		c-2.7-7.2-9.7-10.5-16.5-8c-7,2.6-10.2,9.1-7.9,16.5c1.7,5.4,3.5,10.7,5.4,16.5c-5.3,1.8-10.3,3.5-15.3,5.2
		c-7.6,2.7-11.3,9.4-9,16.4c2.4,7.3,9.3,10.6,17.3,8.1c5-1.6,10-3.3,15.4-5c3.6,10.9,7.1,21.3,10.7,32c-5.7,1.9-10.7,3.6-15.7,5.4
		c-7.3,2.6-10.9,9.3-8.7,16.1c2.2,7.1,9.2,10.7,16.7,8.4c5.2-1.6,10.4-3.4,15.5-5c0.3,0.4,0.7,0.6,0.7,0.9c1.6,4.7,3.2,9.4,4.9,14.1
		c2.9,8.3,9.5,12.2,16.9,9.7c7.2-2.4,10.3-9.6,7.6-18c-1.6-5-3.3-10-5-15.2c11.3-3.8,22.1-7.4,33.2-11.1c1.9,5.7,3.6,10.9,5.5,16
		c2.8,7.6,9.6,11.2,16.6,8.8c7.2-2.4,10.3-9.5,7.8-17.5c-1.7-5.2-3.3-10.3-5.1-15.7c2.8-0.9,5.1-1.7,7.5-2.5c2.5-0.9,5-1.7,7.5-2.6
		c7.9-2.9,11.7-9.8,9.2-16.8c-2.6-7.3-9.5-10.3-17.5-7.8c-4.9,1.6-9.7,3.2-15.1,4.9c-3.7-10.9-7.2-21.3-10.7-31.9
		c5.9-2,11.3-3.6,16.5-5.7c6.9-2.7,10.1-9.7,7.8-16.2c-2.5-7-9.2-10.3-16.4-8.1C163.6,66.9,158.4,68.6,152.7,70.5z"/>
	<path fill="none" d="M152.7,70.5c5.7-1.9,10.8-3.6,16-5.2c7.3-2.2,14,1.1,16.4,8.1c2.3,6.5-0.9,13.5-7.8,16.2
		c-5.2,2.1-10.6,3.7-16.5,5.7c3.6,10.6,7.1,21.1,10.7,31.9c5.4-1.7,10.2-3.3,15.1-4.9c8-2.6,14.8,0.5,17.5,7.8
		c2.5,6.9-1.3,13.9-9.2,16.8c-2.5,0.9-5,1.7-7.5,2.6c-2.3,0.8-4.7,1.6-7.5,2.5c1.7,5.4,3.4,10.5,5.1,15.7c2.5,7.9-0.6,15-7.8,17.5
		c-6.9,2.4-13.8-1.2-16.6-8.8c-1.9-5.1-3.6-10.3-5.5-16c-11.1,3.7-21.9,7.3-33.2,11.1c1.7,5.2,3.4,10.2,5,15.2
		c2.7,8.4-0.4,15.6-7.6,18c-7.4,2.5-14-1.3-16.9-9.7c-1.6-4.7-3.2-9.4-4.9-14.1c-0.1-0.3-0.4-0.5-0.7-0.9c-5.1,1.7-10.3,3.4-15.5,5
		c-7.5,2.3-14.5-1.3-16.7-8.4c-2.2-6.8,1.4-13.5,8.7-16.1c5-1.8,10-3.4,15.7-5.4c-3.6-10.7-7.1-21.1-10.7-32
		c-5.4,1.7-10.4,3.4-15.4,5c-7.9,2.5-14.9-0.8-17.3-8.1c-2.3-7,1.4-13.7,9-16.4c5-1.8,10-3.4,15.3-5.2c-1.9-5.8-3.7-11.1-5.4-16.5
		c-2.3-7.4,0.9-14,7.9-16.5c6.7-2.5,13.7,0.8,16.5,8c2,5.3,3.7,10.7,5.7,16.7c11-3.7,21.8-7.3,33.2-11.1c-2-6-4-11.8-5.7-17.6
		c-1.9-6.6,1.9-13.4,8.3-15.6c6.2-2.1,13.2,0.8,15.9,6.8c1,2.3,1.7,4.7,2.5,7C150.1,63,151.3,66.4,152.7,70.5z M136.3,103.4
		c-11.4,3.8-22.2,7.5-33.3,11.2c3.7,10.9,7.2,21.3,10.8,32.1c11.3-3.8,22.1-7.4,33.3-11.2C143.4,124.7,139.9,114.3,136.3,103.4z"/>
	<path fill="#FFFFFF" d="M136.3,103.4c3.7,10.9,7.2,21.2,10.8,32.1c-11.2,3.8-22,7.4-33.3,11.2c-3.6-10.8-7.2-21.2-10.8-32.1
		C114.1,110.9,124.9,107.3,136.3,103.4z"/>
</g>
</svg>
