<?xml version="1.0" encoding="utf-8"?>
<!-- Generator: Adobe Illustrator 18.1.1, SVG Export Plug-In . SVG Version: 6.00 Build 0)  -->
<svg version="1.1" id="Logo_FIXED" xmlns="http://www.w3.org/2000/svg" xmlns:xlink="http://www.w3.org/1999/xlink" x="0px" y="0px"
	 viewBox="27 27 90 90" enable-background="new 27 27 90 90" xml:space="preserve">
<title>Twitter_Logo_Blue</title>
<path fill="#FFFFFF" d="M55.3,108.6c34,0,52.5-28.1,52.5-52.5c0-0.8,0-1.6-0.1-2.4c3.6-2.6,6.7-5.9,9.2-9.6
	c-3.4,1.5-6.9,2.5-10.6,2.9c3.9-2.3,6.7-5.9,8.1-10.2c-3.6,2.2-7.6,3.7-11.7,4.5c-7-7.4-18.7-7.8-26.1-0.8
	c-4.8,4.5-6.8,11.2-5.3,17.6c-14.8-0.7-28.7-7.8-38.1-19.3C28.4,47.2,30.9,58,39,63.5c-2.9-0.1-5.8-0.9-8.4-2.3c0,0.1,0,0.2,0,0.2
	c0,8.8,6.2,16.4,14.8,18.1c-2.7,0.7-5.6,0.8-8.3,0.3c2.4,7.5,9.4,12.7,17.3,12.8c-6.5,5.1-14.6,7.9-22.9,7.9c-1.5,0-2.9-0.1-4.4-0.3
	C35.4,105.7,45.3,108.6,55.3,108.6"/>
</svg>
