<svg id="1cb25a1b-e354-4a96-9df5-abd224bd48aa" data-name="Layer 1" xmlns="http://www.w3.org/2000/svg" viewBox="0 0 1024 941.94"><defs><style>.\38 c1b975e-6ec6-49fb-9fd0-df8026a3cb82{fill:none;}.\32 74a92c8-9bce-463f-a000-32dfdc564e43{fill:#00aeef;}.fe1c2ad9-726f-4f9a-a9be-b1300ac7d2bf{fill:#1b75bc;}</style></defs><title>logo</title><polygon class="8c1b975e-6ec6-49fb-9fd0-df8026a3cb82" points="692.62 399.88 692.62 142.17 343 142.17 194.21 399.88 532.83 399.88 692.62 399.88"/><path class="274a92c8-9bce-463f-a000-32dfdc564e43" d="M834.79,583.09V41H260.92L9.52,476.46h0a71,71,0,0,0,0,71.06h0q10.61,18.37,20.53,35.54h0c49.23,85.11,87,149.19,123.64,201.08,47.39,67.16,91.06,110.12,141.58,139.29s109.56,45.5,191.42,53c53.3,4.86,114.53,6.11,191.32,6.43V983H834.79V840.8H763.71c-217.89,0-327.26,0-397.35-40.46-55.39-32-101.17-97.87-171.72-217.25H834.79ZM194.21,440.91,343,183.2H692.62V440.91H194.21Z" transform="translate(0 -41.03)"/><rect class="fe1c2ad9-726f-4f9a-a9be-b1300ac7d2bf" x="881.83" y="0.14" width="142.17" height="542.06"/><rect class="fe1c2ad9-726f-4f9a-a9be-b1300ac7d2bf" x="881.83" y="799.63" width="142.17" height="142.17"/></svg>